<svg width="32" height="22" viewBox="0 0 32 22" fill="none" xmlns="http://www.w3.org/2000/svg">
<path d="M12.7686 0.824525C13.2697 0.824525 13.6991 1.00347 14.057 1.36135C14.3433 1.71924 14.4865 2.14871 14.4865 2.64975C14.4865 3.22237 14.3791 3.79499 14.1644 4.3676L8.47398 19.0767C8.11609 19.7925 7.75821 20.3651 7.40032 20.7946C6.97085 21.2956 6.29087 21.5462 5.36037 21.5462L1.81729 21.5462C1.24467 21.5462 0.815206 21.3314 0.528896 20.902C0.17101 20.4725 0.0636441 19.8999 0.206799 19.1841L2.56885 3.93814C2.64043 3.07921 2.92674 2.32765 3.42778 1.68345C3.92882 1.11083 4.68038 0.824524 5.68247 0.824524L12.7686 0.824525ZM29.9472 0.824526C30.4482 0.824526 30.8777 1.00347 31.2356 1.36136C31.5219 1.71924 31.665 2.14871 31.665 2.64975C31.665 3.22237 31.5577 3.79499 31.3429 4.3676L25.6525 19.0767C25.2946 19.7925 24.901 20.3651 24.4715 20.7946C24.042 21.2956 23.3979 21.5462 22.5389 21.5462H18.9958C18.4232 21.5462 17.9938 21.3314 17.7075 20.902C17.3496 20.4725 17.2422 19.8999 17.3854 19.1841L19.7474 3.93814C19.819 3.07921 20.1053 2.32765 20.6063 1.68345C21.1074 1.11084 21.8232 0.824525 22.7537 0.824525L29.9472 0.824526Z" fill="#27104E"/>
</svg>
